# xmcd
#
# Track frame offsets:
#	150
#	10544
#	23722
#	33664
#	49229
#	62433
#	76278
#	86741
#	93602
#	101838
#	113291
#	125656
#	143953
#	152353
#	165592
#	177107
#
# Disc length: 2527 seconds
#
# Revision: 1
# Processed by: cddbd v1.5.2PL0 Copyright (c) Steve Scherf et al.
# Submitted via: audiograbber 1.83.01
#
DISCID=bf09dd10
DTITLE=Donovan - Donovan - 1965 [CD 1)
DYEAR=1965
DGENRE=Blues
TTITLE0=Catch the wind (Single version with strings)
TTITLE1=Why do you treat me like you do
TTITLE2=Every man has his chain
TTITLE3=Josie
TTITLE4=Catch the wind
TTITLE5=Remember the alamo (Album version w/o harmonica)
TTITLE6=Cuttin' out
TTITLE7=Car car
TTITLE8=Keep on truckin'
TTITLE9=Goldwatch blues
TTITLE10=To sing for you
TTITLE11=You*re gonna need somebody on your bond
TTITLE12=Tangerine puppet
TTITLE13=Donna, donna
TTITLE14=Ramblin' boy
TTITLE15=Colours (Original Single version)
EXTD=
EXTT0=
EXTT1=
EXTT2=
EXTT3=
EXTT4=
EXTT5=
EXTT6=
EXTT7=
EXTT8=
EXTT9=
EXTT10=
EXTT11=
EXTT12=
EXTT13=
EXTT14=
EXTT15=
PLAYORDER=
